<svg width="25" height="24" viewBox="0 0 25 24" fill="none" xmlns="http://www.w3.org/2000/svg">
<path d="M18.8003 20.9873H16.0747V19.726H8.92556V20.9873H6.19998C5.78918 20.9873 5.45618 21.307 5.45618 21.7013C5.45618 22.0957 5.78918 22.4154 6.19998 22.4154H18.8004C19.2112 22.4154 19.5442 22.0957 19.5442 21.7013C19.5442 21.307 19.2111 20.9873 18.8003 20.9873Z" fill="#4888FF" fill-opacity="0.5"/>
<path d="M0 15.6536V17.5838C0 17.9781 0.333008 18.2978 0.743799 18.2978H24.2562C24.667 18.2978 25 17.9781 25 17.5838V15.6536H0Z" fill="#4888FF" fill-opacity="0.5"/>
<path d="M24.2562 1.58459H0.743799C0.333008 1.58459 0 1.90433 0 2.29864V14.2254H25V2.29864C25 1.90433 24.667 1.58459 24.2562 1.58459Z" fill="#4888FF" fill-opacity="0.5"/>
</svg>
